# xmcd
#
# Track frame offsets: 
#        150
#        15265
#        30710
#        46547
#        60002
#        72382
#        88135
#        105647
#        117775
#        136915
#        149140
#        161972
#        180795
#        194697
#        209575
#        223230
#        240107
#        253027
#        271607
#        288682
#        301502
#        315975
#
# Disc length: 4364 seconds
#
# Revision: 6
# Processed by: cddbd v1.5.2PL0 Copyright (c) Steve Scherf et al.
# Submitted via: ExactAudioCopy v0.95b3
#
DISCID=30110a16
DTITLE=Alice Cooper - The Life And Crimes Of Alice Cooper [CD3]
DYEAR=1999
DGENRE=Hard Rock
TTITLE0=It's Hot Tonight
TTITLE1=You And Me (Single Version)
TTITLE2=I Miss You - Billion Dollar Babies
TTITLE3=No Time For Tears
TTITLE4=Because - With THE BEE GEES
TTITLE5=From The Inside (Single Version)
TTITLE6=How You Gonna See Me Now
TTITLE7=Serious
TTITLE8=No Tricks - With Betty Wright
TTITLE9=Road Rats
TTITLE10=Clones (We're All)
TTITLE11=Pain (Flush The Fashion Version)
TTITLE12=Who Do You Think We Are (Single Version)
TTITLE13=Look At You Over There, Ripping The Sawdust From My Teddybear
TTITLE13=(DEMO)
TTITLE14=For Britain Only
TTITLE15=I Am The Future (Single Version)
TTITLE16=Tag, You're It
TTITLE17=Former Lee Warmer
TTITLE18=I Love America
TTITLE19=Identity Crisises
TTITLE20=See Me In The Mirror
TTITLE21=Hard Rock Summer
EXTD=YEAR: 1999
EXTT0=
EXTT1=
EXTT2=
EXTT3=
EXTT4=
EXTT5=
EXTT6=
EXTT7=
EXTT8=
EXTT9=
EXTT10=
EXTT11=
EXTT12=
EXTT13=
EXTT14=
EXTT15=
EXTT16=
EXTT17=
EXTT18=
EXTT19=
EXTT20=
EXTT21=
PLAYORDER=
